<mxfile host="app.diagrams.net" agent="Mozilla/5.0 (Macintosh; Intel Mac OS X 10_15_7) AppleWebKit/537.36 (KHTML, like Gecko) Chrome/138.0.0.0 Safari/537.36" version="28.1.1">
  <diagram id="C5RBs43oDa-KdzZeNtuy" name="Page-1">
    <mxGraphModel dx="1301" dy="1897" grid="1" gridSize="10" guides="1" tooltips="1" connect="1" arrows="1" fold="1" page="1" pageScale="1" pageWidth="827" pageHeight="1169" math="0" shadow="0">
      <root>
        <mxCell id="WIyWlLk6GJQsqaUBKTNV-0" />
        <mxCell id="WIyWlLk6GJQsqaUBKTNV-1" parent="WIyWlLk6GJQsqaUBKTNV-0" />
        <mxCell id="h22V9gT1QqcYALshdc7c-2" style="edgeStyle=orthogonalEdgeStyle;rounded=0;orthogonalLoop=1;jettySize=auto;html=1;exitX=0.5;exitY=1;exitDx=0;exitDy=0;entryX=0.5;entryY=0;entryDx=0;entryDy=0;" parent="WIyWlLk6GJQsqaUBKTNV-1" source="h22V9gT1QqcYALshdc7c-19" target="h22V9gT1QqcYALshdc7c-23" edge="1">
          <mxGeometry relative="1" as="geometry">
            <mxPoint x="336" y="80" as="targetPoint" />
            <mxPoint x="330" y="30" as="sourcePoint" />
          </mxGeometry>
        </mxCell>
        <mxCell id="h22V9gT1QqcYALshdc7c-44" style="edgeStyle=orthogonalEdgeStyle;rounded=0;orthogonalLoop=1;jettySize=auto;html=1;entryX=0;entryY=0.5;entryDx=0;entryDy=0;" parent="WIyWlLk6GJQsqaUBKTNV-1" source="h22V9gT1QqcYALshdc7c-3" target="h22V9gT1QqcYALshdc7c-23" edge="1">
          <mxGeometry relative="1" as="geometry">
            <Array as="points">
              <mxPoint x="100" y="-310" />
            </Array>
          </mxGeometry>
        </mxCell>
        <mxCell id="h22V9gT1QqcYALshdc7c-3" value="Check if camera OV5467&amp;nbsp;is streaming the data through server to client" style="rounded=0;whiteSpace=wrap;html=1;" parent="WIyWlLk6GJQsqaUBKTNV-1" vertex="1">
          <mxGeometry x="40" y="279" width="120" height="60" as="geometry" />
        </mxCell>
        <mxCell id="h22V9gT1QqcYALshdc7c-22" style="edgeStyle=orthogonalEdgeStyle;rounded=0;orthogonalLoop=1;jettySize=auto;html=1;" parent="WIyWlLk6GJQsqaUBKTNV-1" source="h22V9gT1QqcYALshdc7c-6" target="h22V9gT1QqcYALshdc7c-17" edge="1">
          <mxGeometry relative="1" as="geometry" />
        </mxCell>
        <mxCell id="h22V9gT1QqcYALshdc7c-41" style="edgeStyle=orthogonalEdgeStyle;rounded=0;orthogonalLoop=1;jettySize=auto;html=1;entryX=0.5;entryY=0;entryDx=0;entryDy=0;" parent="WIyWlLk6GJQsqaUBKTNV-1" source="h22V9gT1QqcYALshdc7c-6" target="h22V9gT1QqcYALshdc7c-39" edge="1">
          <mxGeometry relative="1" as="geometry" />
        </mxCell>
        <mxCell id="h22V9gT1QqcYALshdc7c-6" value="Checked if user&amp;nbsp;&lt;div&gt;has clicked capture button&lt;/div&gt;" style="rhombus;whiteSpace=wrap;html=1;" parent="WIyWlLk6GJQsqaUBKTNV-1" vertex="1">
          <mxGeometry x="240" y="-90" width="190" height="100" as="geometry" />
        </mxCell>
        <mxCell id="h22V9gT1QqcYALshdc7c-15" style="edgeStyle=orthogonalEdgeStyle;rounded=0;orthogonalLoop=1;jettySize=auto;html=1;" parent="WIyWlLk6GJQsqaUBKTNV-1" source="h22V9gT1QqcYALshdc7c-8" target="h22V9gT1QqcYALshdc7c-17" edge="1">
          <mxGeometry relative="1" as="geometry">
            <mxPoint x="570" y="290" as="targetPoint" />
          </mxGeometry>
        </mxCell>
        <mxCell id="h22V9gT1QqcYALshdc7c-45" style="edgeStyle=orthogonalEdgeStyle;rounded=0;orthogonalLoop=1;jettySize=auto;html=1;entryX=1;entryY=0.5;entryDx=0;entryDy=0;" parent="WIyWlLk6GJQsqaUBKTNV-1" source="h22V9gT1QqcYALshdc7c-8" target="h22V9gT1QqcYALshdc7c-3" edge="1">
          <mxGeometry relative="1" as="geometry" />
        </mxCell>
        <mxCell id="h22V9gT1QqcYALshdc7c-8" value="&lt;div&gt;Is camera OV5467&amp;nbsp;&lt;/div&gt;&lt;div&gt;module delivering&amp;nbsp;&lt;/div&gt;&lt;div&gt;data to client&amp;nbsp;&lt;/div&gt;&lt;div&gt;through server&lt;/div&gt;" style="rhombus;whiteSpace=wrap;html=1;" parent="WIyWlLk6GJQsqaUBKTNV-1" vertex="1">
          <mxGeometry x="230" y="250" width="210" height="118" as="geometry" />
        </mxCell>
        <mxCell id="h22V9gT1QqcYALshdc7c-14" value="Yes" style="text;html=1;align=center;verticalAlign=middle;resizable=0;points=[];autosize=1;strokeColor=none;fillColor=none;" parent="WIyWlLk6GJQsqaUBKTNV-1" vertex="1">
          <mxGeometry x="355" width="40" height="30" as="geometry" />
        </mxCell>
        <mxCell id="h22V9gT1QqcYALshdc7c-16" value="No" style="text;html=1;align=center;verticalAlign=middle;resizable=0;points=[];autosize=1;strokeColor=none;fillColor=none;" parent="WIyWlLk6GJQsqaUBKTNV-1" vertex="1">
          <mxGeometry x="580" y="188" width="40" height="30" as="geometry" />
        </mxCell>
        <mxCell id="h22V9gT1QqcYALshdc7c-37" style="edgeStyle=orthogonalEdgeStyle;rounded=0;orthogonalLoop=1;jettySize=auto;html=1;entryX=1;entryY=0.5;entryDx=0;entryDy=0;" parent="WIyWlLk6GJQsqaUBKTNV-1" source="h22V9gT1QqcYALshdc7c-17" target="h22V9gT1QqcYALshdc7c-23" edge="1">
          <mxGeometry relative="1" as="geometry">
            <Array as="points">
              <mxPoint x="720" y="309" />
              <mxPoint x="720" y="-310" />
            </Array>
          </mxGeometry>
        </mxCell>
        <mxCell id="h22V9gT1QqcYALshdc7c-17" value="send black screen to client" style="rounded=0;whiteSpace=wrap;html=1;" parent="WIyWlLk6GJQsqaUBKTNV-1" vertex="1">
          <mxGeometry x="512" y="279" width="120" height="60" as="geometry" />
        </mxCell>
        <mxCell id="h22V9gT1QqcYALshdc7c-19" value="Start" style="ellipse;whiteSpace=wrap;html=1;" parent="WIyWlLk6GJQsqaUBKTNV-1" vertex="1">
          <mxGeometry x="276" y="-460" width="120" height="80" as="geometry" />
        </mxCell>
        <mxCell id="h22V9gT1QqcYALshdc7c-24" style="edgeStyle=orthogonalEdgeStyle;rounded=0;orthogonalLoop=1;jettySize=auto;html=1;" parent="WIyWlLk6GJQsqaUBKTNV-1" source="h22V9gT1QqcYALshdc7c-33" target="h22V9gT1QqcYALshdc7c-6" edge="1">
          <mxGeometry relative="1" as="geometry" />
        </mxCell>
        <mxCell id="h22V9gT1QqcYALshdc7c-23" value="displays user client,&lt;div&gt;user interface&lt;/div&gt;" style="rounded=0;whiteSpace=wrap;html=1;" parent="WIyWlLk6GJQsqaUBKTNV-1" vertex="1">
          <mxGeometry x="275" y="-340" width="120" height="60" as="geometry" />
        </mxCell>
        <mxCell id="h22V9gT1QqcYALshdc7c-32" style="edgeStyle=orthogonalEdgeStyle;rounded=0;orthogonalLoop=1;jettySize=auto;html=1;entryX=0.5;entryY=0;entryDx=0;entryDy=0;" parent="WIyWlLk6GJQsqaUBKTNV-1" source="h22V9gT1QqcYALshdc7c-28" target="h22V9gT1QqcYALshdc7c-8" edge="1">
          <mxGeometry relative="1" as="geometry" />
        </mxCell>
        <mxCell id="h22V9gT1QqcYALshdc7c-28" value="camera input feed" style="shape=parallelogram;perimeter=parallelogramPerimeter;whiteSpace=wrap;html=1;fixedSize=1;" parent="WIyWlLk6GJQsqaUBKTNV-1" vertex="1">
          <mxGeometry x="275" y="140" width="120" height="60" as="geometry" />
        </mxCell>
        <mxCell id="h22V9gT1QqcYALshdc7c-34" style="edgeStyle=orthogonalEdgeStyle;rounded=0;orthogonalLoop=1;jettySize=auto;html=1;entryX=0.5;entryY=0;entryDx=0;entryDy=0;" parent="WIyWlLk6GJQsqaUBKTNV-1" source="h22V9gT1QqcYALshdc7c-33" target="h22V9gT1QqcYALshdc7c-6" edge="1">
          <mxGeometry relative="1" as="geometry" />
        </mxCell>
        <mxCell id="h22V9gT1QqcYALshdc7c-35" value="" style="edgeStyle=orthogonalEdgeStyle;rounded=0;orthogonalLoop=1;jettySize=auto;html=1;" parent="WIyWlLk6GJQsqaUBKTNV-1" source="h22V9gT1QqcYALshdc7c-23" target="h22V9gT1QqcYALshdc7c-33" edge="1">
          <mxGeometry relative="1" as="geometry">
            <mxPoint x="335" y="-280" as="sourcePoint" />
            <mxPoint x="336" y="-10" as="targetPoint" />
          </mxGeometry>
        </mxCell>
        <mxCell id="h22V9gT1QqcYALshdc7c-33" value="User capture &lt;br&gt;button variable" style="shape=parallelogram;perimeter=parallelogramPerimeter;whiteSpace=wrap;html=1;fixedSize=1;" parent="WIyWlLk6GJQsqaUBKTNV-1" vertex="1">
          <mxGeometry x="276" y="-200" width="120" height="60" as="geometry" />
        </mxCell>
        <mxCell id="h22V9gT1QqcYALshdc7c-42" style="edgeStyle=orthogonalEdgeStyle;rounded=0;orthogonalLoop=1;jettySize=auto;html=1;" parent="WIyWlLk6GJQsqaUBKTNV-1" source="h22V9gT1QqcYALshdc7c-39" target="h22V9gT1QqcYALshdc7c-28" edge="1">
          <mxGeometry relative="1" as="geometry" />
        </mxCell>
        <mxCell id="h22V9gT1QqcYALshdc7c-39" value="Set on PIEZO buzzer for 120ms" style="rounded=0;whiteSpace=wrap;html=1;" parent="WIyWlLk6GJQsqaUBKTNV-1" vertex="1">
          <mxGeometry x="276" y="40" width="120" height="60" as="geometry" />
        </mxCell>
        <mxCell id="h22V9gT1QqcYALshdc7c-46" value="Yes" style="text;html=1;align=center;verticalAlign=middle;resizable=0;points=[];autosize=1;strokeColor=none;fillColor=none;" parent="WIyWlLk6GJQsqaUBKTNV-1" vertex="1">
          <mxGeometry x="170" y="270" width="40" height="30" as="geometry" />
        </mxCell>
        <mxCell id="h22V9gT1QqcYALshdc7c-47" value="No" style="text;html=1;align=center;verticalAlign=middle;resizable=0;points=[];autosize=1;strokeColor=none;fillColor=none;" parent="WIyWlLk6GJQsqaUBKTNV-1" vertex="1">
          <mxGeometry x="450" y="270" width="40" height="30" as="geometry" />
        </mxCell>
      </root>
    </mxGraphModel>
  </diagram>
</mxfile>
